<svg width="64" height="64" viewBox="0 0 64 64" fill="none" xmlns="http://www.w3.org/2000/svg" class="flex-shrink-0"><rect x="8" y="4" width="48" height="56" rx="6" fill="url(#gradient1)"></rect><path d="M56 16L44 4V12C44 14.2091 45.7909 16 48 16H56Z" fill="url(#gradient2)"></path><rect x="16" y="20" width="32" height="3" rx="1.5" fill="white" opacity="0.9"></rect><rect x="16" y="28" width="24" height="3" rx="1.5" fill="white" opacity="0.9"></rect><rect x="16" y="36" width="28" height="3" rx="1.5" fill="white" opacity="0.7"></rect><rect x="16" y="44" width="10" height="10" rx="2" fill="#FCD34D"></rect><text x="19" y="52" font-family="Arial, sans-serif" font-size="8" font-weight="bold" fill="#1E293B">B</text><rect x="28" y="44" width="8" height="10" rx="2" fill="#A78BFA"></rect><text x="30.5" y="52" font-family="serif" font-size="8" font-style="italic" font-weight="bold" fill="white">I</text><rect x="38" y="44" width="10" height="10" rx="2" fill="#60A5FA"></rect><line x1="40" y1="51.5" x2="46" y2="51.5" stroke="white" stroke-width="1.5" stroke-linecap="round"></line><defs><linearGradient id="gradient1" x1="8" y1="4" x2="56" y2="60" gradientUnits="userSpaceOnUse"><stop stop-color="#3B82F6"></stop><stop offset="1" stop-color="#8B5CF6"></stop></linearGradient><linearGradient id="gradient2" x1="44" y1="4" x2="56" y2="16" gradientUnits="userSpaceOnUse"><stop stop-color="#6366F1"></stop><stop offset="1" stop-color="#7C3AED"></stop></linearGradient></defs></svg>
